<svg xmlns="http://www.w3.org/2000/svg" width="800" height="800" viewBox="0 0 800 800"><defs><style>.a{fill:#333;stroke:#707070;}.b{fill:#fff;}.c{stroke:none;}.d{fill:none;}</style></defs><g transform="translate(-232 -56)"><g class="a" transform="translate(232 56)"><rect class="c" width="800" height="800" rx="400"/><rect class="d" x="0.5" y="0.5" width="799" height="799" rx="399.5"/></g><path class="b" d="M224,256A128,128,0,1,0,96,128,128,128,0,0,0,224,256Zm50.7,48H173.3A173.32,173.32,0,0,0,0,477.3a34.671,34.671,0,0,0,34.66,34.67h378.7A34.6,34.6,0,0,0,448,477.3,173.314,173.314,0,0,0,274.7,304Z" transform="translate(408 200)"/></g></svg>